<?xml version="1.0" encoding="UTF-8" standalone="no"?>
<svg
   xmlns:dc="http://purl.org/dc/elements/1.1/"
   xmlns:cc="http://creativecommons.org/ns#"
   xmlns:rdf="http://www.w3.org/1999/02/22-rdf-syntax-ns#"
   xmlns:svg="http://www.w3.org/2000/svg"
   xmlns="http://www.w3.org/2000/svg"
   xmlns:sodipodi="http://sodipodi.sourceforge.net/DTD/sodipodi-0.dtd"
   xmlns:inkscape="http://www.inkscape.org/namespaces/inkscape"
   version="1.1"
   id="Layer_1"
   x="0px"
   y="0px"
   viewBox="0 0 624.05374 230.31916"
   xml:space="preserve"
   sodipodi:docname="startiot-black.svg"
   inkscape:version="1.0beta1 (32d4812, 2019-09-19)"
   width="624.05377"
   height="230.31915"
   inkscape:export-filename="/Users/pontus/black-rgb.png"
   inkscape:export-xdpi="96"
   inkscape:export-ydpi="96"><metadata
   id="metadata45">
  <rdf:RDF>
    <cc:Work
   rdf:about="">
      <dc:format>image/svg+xml</dc:format>

      <dc:type
   rdf:resource="http://purl.org/dc/dcmitype/StillImage" />

      <dc:title></dc:title>

    </cc:Work>

  </rdf:RDF>

</metadata>

<defs
   id="defs43" />

<sodipodi:namedview
   pagecolor="#ffffff"
   bordercolor="#666666"
   inkscape:document-rotation="0"
   borderopacity="1"
   objecttolerance="10"
   gridtolerance="10"
   guidetolerance="10"
   inkscape:pageopacity="0"
   inkscape:pageshadow="2"
   inkscape:window-width="1600"
   inkscape:window-height="907"
   id="namedview41"
   showgrid="false"
   inkscape:zoom="1.3202462"
   inkscape:cx="367.03947"
   inkscape:cy="196.32931"
   inkscape:window-x="44"
   inkscape:window-y="23"
   inkscape:window-maximized="0"
   inkscape:current-layer="layer4"
   fit-margin-top="0"
   fit-margin-left="0"
   fit-margin-right="0"
   fit-margin-bottom="0" />


<style
   type="text/css"
   id="style10">
	.st0{fill:#19AAF8;}
	.st1{fill:#FFFFFF;}
</style>




<g
   inkscape:groupmode="layer"
   id="layer3"
   inkscape:label="bg"
   style="display:none"
   transform="translate(-0.09498883,4.950398)">
  <rect
   style="fill:#000000"
   id="rect68"
   width="589.89362"
   height="230.31915"
   x="24.331028"
   y="-4.950398" />

</g>

<g
   inkscape:groupmode="layer"
   id="layer2"
   inkscape:label="lg"
   style="display:inline"
   transform="translate(-0.09498883,4.950398)">
  <path
   class="st0"
   d="m 121.3,67.6 c 3.4,0.5 4.1,-0.2 4.6,-3.4 0.7,-5 2.5,-13.3 6.7,-21.9 4.5,-9.2 11.7,-19.4 21.7,-26.2 8.4,-5.7 22.3,-11.9 33,-14.2 8.8,-1.9 17,-2.2 24,-1.6 14.5,1.3 22.5,5.4 26.5,10.8 1.5,2 2.3,4.5 2.3,6 0.1,2.7 -1,6.1 -4.9,9.5 -3.7,3.3 -11.6,7.4 -22.4,11 -11.2,3.7 -26.5,7.7 -41.8,11.2 -12.8,2.9 -20,5.4 -26.1,7.5 -10.1,3.4 -13.1,13.5 -6.8,16.5 9.1,4.4 14.8,9.1 19.6,13 7.3,6 15.7,13 26.2,25.6 9.5,11.6 25,33.7 30.6,55.2 6.2,23.6 2.3,46 -11,52.2 -13.1,6.1 -30.5,-2.7 -42.8,-15.4 -11.6,-12 -19.8,-26.2 -27.4,-48.1 -6.6,-18.8 -9.3,-46.1 -9.3,-60.4 0,-4.8 -0.1,-5.8 0.1,-10.1 0.4,-3.7 -9.6,-6.8 -20.5,0.1 -12.3,7.9 -24.4,22.3 -31.6,30.7 -3.1,3.6 -7.3,9 -11.8,14.6 -5.9,7.4 -12.4,15.1 -18.3,19.3 -8.9,6.5 -23.2,9.2 -33.2,2 C 3.1,147.5 0.2,140 0.1,132.4 0,127 1.4,122.2 4,117.4 7.4,111.5 12.9,105.2 21.6,97.9 30.7,90.5 45.1,82 59.6,76.2 81.7,67.5 105.5,64.7 121.3,67.6 Z"
   id="path12"
   inkscape:connector-curvature="0" />

  <g
   id="g38">
	
	
	
	
	
	
	
	
	
	
	
	
</g>

</g>

<g
   inkscape:groupmode="layer"
   id="layer5"
   inkscape:label="telenor"
   style="display:inline"
   transform="translate(0,4.9722919)">
  <text
   xml:space="preserve"
   style="font-style:normal;font-variant:normal;font-weight:normal;font-stretch:normal;font-size:66.6667px;line-height:1.25;font-family:'Telenor Font Light';-inkscape-font-specification:'Telenor Font Light, ';fill:#000000;fill-opacity:1;stroke:none"
   x="274.84662"
   y="86.778831"
   id="text196"><tspan
     sodipodi:role="line"
     id="tspan194"
     x="274.84662"
     y="86.778831"
     style="font-style:normal;font-variant:normal;font-weight:normal;font-stretch:normal;font-family:'Telenor Font Light';-inkscape-font-specification:'Telenor Font Light, ';fill:#000000">telenor</tspan></text>

</g>

<g
   inkscape:groupmode="layer"
   id="layer4"
   inkscape:label="startiot"
   style="display:inline"
   transform="translate(-0.09498883,4.950398)">
  <text
   xml:space="preserve"
   style="font-style:normal;font-variant:normal;font-weight:normal;font-stretch:normal;font-size:98.6667px;line-height:1.25;font-family:'Telenor Font Light';-inkscape-font-specification:'Telenor Font Light, ';fill:#1a1a1a;fill-opacity:1;stroke:none"
   x="271.4924"
   y="184.68686"
   id="text73"><tspan
     sodipodi:role="line"
     id="tspan71"
     x="271.4924"
     y="184.68686"
     style="fill:#1a1a1a">Start IoT</tspan></text>

</g>


</svg>
